<?xml version="1.0" encoding="UTF-8"?>
<svg xmlns="http://www.w3.org/2000/svg" id="icons" viewBox="0 0 60 60" width="512" height="512"><path d="M28,6V2a1,1,0,0,1,1-1h2a1,1,0,0,1,1,1V6Z" fill="#7a5046"/><path d="M54,38V7a2,2,0,0,0-2-2H8A2.006,2.006,0,0,0,6,7V38Z" fill="#c2dbdd"/><path d="M31.56,29.92,22.63,38H6V35.41L20.81,22.45a1.8,1.8,0,0,1,2.38,0Z" fill="#4b88a9"/><path d="M54,32.78V38H22.63l8.93-8.08,8.25-7.47a1.8,1.8,0,0,1,2.38,0Z" fill="#3e748a"/><path d="M6.291,41,1.05,57.7A.994.994,0,0,0,2,59H4.27a1,1,0,0,0,.95-.7L10.643,41,8,40Z" fill="#7a5046"/><path d="M49.357,41,54.78,58.3a1,1,0,0,0,.95.7H58a.994.994,0,0,0,.95-1.3L53.709,41,51,40Z" fill="#7a5046"/><path d="M28,40V58a1,1,0,0,0,1,1h2a1,1,0,0,0,1-1V40Z" fill="#7a5046"/><rect x="4" y="37" width="51" height="4" rx="1" fill="#926153"/><circle cx="15" cy="14" r="4" fill="#c7b14c"/><path d="M26,16a2,2,0,0,1,0-4,3,3,0,0,1,5.85-.91A2.372,2.372,0,0,1,32.5,11a2.5,2.5,0,0,1,0,5Z" fill="#fff"/><path d="M41,18a2,2,0,0,1,0-4,3,3,0,0,1,5.85-.91A2.372,2.372,0,0,1,47.5,13a2.5,2.5,0,0,1,0,5Z" fill="#fff"/><path d="M.379,59.174A2.008,2.008,0,0,0,2,60H4.27a1.984,1.984,0,0,0,1.9-1.4l5.2-16.6H14a1,1,0,0,0,0-2H5V38H54v2H18a1,1,0,0,0,0,2h9V58a2,2,0,0,0,2,2h2a2,2,0,0,0,2-2V42H48.623l5.2,16.6a1.985,1.985,0,0,0,1.9,1.4H58a2.007,2.007,0,0,0,1.621-.826A1.985,1.985,0,0,0,59.9,57.4L54.986,41.729A1.994,1.994,0,0,0,56,40V38a1.993,1.993,0,0,0-1-1.722V7a3,3,0,0,0-3-3H33V2a2,2,0,0,0-2-2H29a2,2,0,0,0-2,2V4H8A3,3,0,0,0,5,7V36a2,2,0,0,0-2,2v2a2,2,0,0,0,1.931,1.993L.1,57.389A1.989,1.989,0,0,0,.379,59.174ZM53,36H26.335L40.472,23.2a.8.8,0,0,1,1.06,0L53,33.234ZM23.356,36H7v-.136L21.472,23.2a.8.8,0,0,1,1.052,0l7.54,6.73ZM31,58H29V42h2Zm24.734,0L50.719,42h2.256L58,58ZM29,2h2V4H29ZM8,6H52a1,1,0,0,1,1,1V30.577L42.852,21.7a2.808,2.808,0,0,0-3.713.009l-7.584,6.867-7.7-6.876a2.806,2.806,0,0,0-3.7,0L7,33.206V7A1,1,0,0,1,8,6ZM7.025,42H9.282L4.27,58H2Z" fill="#373737"/><path d="M15,19a5,5,0,1,0-5-5A5.006,5.006,0,0,0,15,19Zm0-8a3,3,0,1,1-3,3A3,3,0,0,1,15,11Z" fill="#373737"/><path d="M26,17h6.5a3.5,3.5,0,1,0-.039-7A3.964,3.964,0,0,0,29,8a4.008,4.008,0,0,0-3.907,3.14A3,3,0,0,0,26,17Zm0-4a1,1,0,0,0,1-1,2,2,0,0,1,2-2A1.973,1.973,0,0,1,30.9,11.387a1,1,0,0,0,1.228.665A1.4,1.4,0,0,1,32.5,12a1.5,1.5,0,0,1,0,3H26a1,1,0,0,1,0-2Z" fill="#373737"/><path d="M41,19h6.5a3.5,3.5,0,0,0,0-7h-.039A3.964,3.964,0,0,0,44,10a4.008,4.008,0,0,0-3.907,3.14A3,3,0,0,0,41,19Zm0-4a1,1,0,0,0,1-1,2,2,0,0,1,2-2,1.973,1.973,0,0,1,1.9,1.387,1,1,0,0,0,1.228.665A1.4,1.4,0,0,1,47.5,14a1.5,1.5,0,0,1,0,3H41a1,1,0,0,1,0-2Z" fill="#373737"/></svg>
