<svg height="512" viewBox="0 0 61 60" width="512" xmlns="http://www.w3.org/2000/svg"><g id="023---Music-Note" fill="none"><g fill="#31b791"><path id="Path" d="m12.937 59.464c-.2169298-.0003591-.408881-.1405589-.4752193-.3470968-.0663383-.2065378.0080718-.4322908.1842193-.5589032l3.464-2.478-5.343 3.085c-.2327102.1415972-.5359455.0708583-.6819808-.1590928-.14603531-.229951-.0811265-.5344876.1459808-.6849072l4.6-3.19-6.055 3.493c-.23344605.1352991-.53213452.0609722-.67494472-.1679561-.1428102-.2289282-.07822416-.5298733.14594472-.6800439l4.29-2.883-5.337 3.081c-.23354514.1328438-.53032442.0573638-.6720248-.1709163s-.07765459-.5277351.1450248-.6780837l4.874-3.241-5.775 3.333c-.23308287.1306613-.52770735.0549657-.66894229-.1718661-.14123493-.2268319-.07915925-.5246238.14094229-.6761339l7.2-4.838-7.972 4.605c-.23240668.1328499-.52821577.0590851-.67103328-.1673329s-.08196881-.5251514.13803328-.6776671l10.015-6.858-10.806 6.238c-.23497088.1292146-.53003872.050062-.66879247-.179405-.13875376-.2294671-.07178369-.5275361.15179247-.675595l1.637-1.038-1.777 1.022c-.23365564.130691-.52879264.0541466-.66947868-.1736308s-.0769932-.5259521.14447868-.6763692l8.786-5.8-8.908 5.15c-.23554945.1441463-.54335368.0700494-.6875-.1655s-.07004945-.5433537.1655-.6875l6.734-4.357-6.576 3.8c-.23551248.13196-.53324972.0531389-.67262044-.1780652-.13937073-.2312042-.07004227-.5312938.15662044-.6779348l1.416-.89-1.057.609c-.23296731.1327691-.52919188.0581284-.67142871-.1691822-.14223683-.2273105-.07984054-.5263539.14142871-.6778178l3.141-2.125-2.486 1.431c-.23044718.141906-.5319725.0746979-.68033974-.1516433-.14836725-.2263413-.08971452-.5296469.13233974-.6843567l4.5-3.294-3.309 1.911c-.22265563.1273746-.50558289.0655928-.65487411-.1430023-.14929122-.2085952-.11651109-.4963282.07587411-.6659977l2.888-2.522c-.18453221.0024271-.35668393-.0925794-.453-.25-.13806467-.2391402-.05613408-.5449248.183-.683l4.01-2.313c.22304211-.1299097.50831298-.0686909.65841392.1412949.15010093.2099857.11569328.4997155-.07941392.6687051l-2.67 2.328 6.836-3.947c.2296891-.1296297.5205695-.0585592.6646041.1623819s.0916869.5157667-.1196041.6736181l-4.5 3.294 6.651-3.837c.2329673-.1327691.5291919-.0581284.6714287.1691822.1422368.2273105.0798406.5263539-.1414287.6778178l-3.138 2.124 11.747-6.784c.2346058-.1253855.5263122-.0451285.6637604.18262.1374483.2277485.0725112.523243-.1477604.67238l-1.434.9.918-.531c.2347713-.1336383.5332399-.0566316.6740509.1739091.1408109.2305408.0730402.5312411-.1530509.6790909l-6.716 4.343 6.2-3.576c.2329061-.1254293.5232086-.0477402.6623373.1772508s.0789338.5194187-.1373373.6717492l-8.8 5.806 8.27-4.774c.2349709-.1292146.5300387-.050062.6687925.179405.1387537.2294671.0717837.5275361-.1517925.675595l-1.627 1.033 1.11-.64c.2314574-.1247242.5199691-.0488817.6601699.1735422.1402009.2224239.0841872.5154316-.1281699.6704578l-10.016 6.86 9.485-5.476c.2330829-.1306613.5277074-.0549657.6689423.1718661.1412349.2268319.0791592.5246238-.1409423.6761339l-7.2 4.838 6.676-3.854c.2335451-.1328438.5303244-.0573638.6720248.1709163s.0776546.5277351-.1450248.6780837l-4.873 3.241 4.342-2.51c.2334461-.1352991.5321345-.0609722.6749447.1679561.1428102.2289282.0782242.5298733-.1459447.6800439l-4.291 2.885 3.762-2.172c.23158-.1294027.5239091-.0554223.6660571.1685604.142148.2239828.0846277.5199909-.1310571.6744396l-4.595 3.196 3.851-2.223c.2305507-.1302945.5227069-.0582293.6662193.1643342.1435123.2225634.0886.5184238-.1252193.6746658l-3.463 2.475 2.293-1.324c.2296891-.1296297.5205695-.0585592.6646041.1623819s.0916869.5157667-.1196041.6736181l-1.55 1.134c.2255547.001802.4219749.1544.4794824.3725078.0575076.2181079-.0381386.4477138-.2334824.5604922l-7.24 4.179c-.2296891.1296297-.5205695.0585592-.6646041-.1623819s-.0916869-.5157667.1196041-.6736181l1.027-.751-3.179 1.838c-.0761726.0431523-.1624623.0652425-.25.064z"/><path id="Path" d="m47.473 53.425c-.2152152 0-.4062846-.137715-.4743416-.3418861-.0680571-.2041711.0021694-.4289848.1743416-.5581139l4.79-3.611-7.34 4.236c-.2330372.1238601-.5222123.0452782-.6605113-.1794907s-.0780959-.5183212.1375113-.6705093l.9-.6-1.81 1.048c-.2327656.1341958-.5299731.060446-.673-.167-.1433584-.2281681-.0801164-.5288994.143-.68l4.556-3.088-5.734 3.31c-.2330829.1306613-.5277074.0549657-.6689423-.1718661-.1412349-.2268319-.0791592-.5246238.1409423-.6761339l5.234-3.5-6.183 3.565c-.2358256.1438702-.5436298.0693256-.6875-.1665s-.0693256-.5436298.1665-.6875l1.747-1.123-2.178 1.257c-.2333681.1382671-.5344194.0652417-.6785003-.1645824-.144081-.2298241-.078635-.5326135.1475003-.6824176l8.428-5.693-9.236 5.332c-.2329673.1327691-.5291919.0581284-.6714287-.1691822-.1422368-.2273105-.0798406-.5263539.1414287-.6778178l9.886-6.688-10.487 6.054c-.2347034.1364868-.5354374.0607325-.6774741-.1706544-.1420368-.2313868-.073465-.5338394.1544741-.6813456l7.257-4.734-7.348 4.242c-.2334461.1352991-.5321345.0609722-.6749447-.1679561-.1428102-.2289282-.0782242-.5298733.1459447-.6800439l10.96-7.358-10.945 6.319c-.2329673.1327691-.5291919.0581284-.6714287-.1691822-.1422368-.2273105-.0798406-.5263539.1414287-.6778178l4.284-2.9-3.9 2.249c-.233204.1287421-.5263939.0520483-.6666872-.1743946-.1402933-.226443-.0784231-.5231151.1406872-.6746054l.969-.643-.258.148c-.2296891.1296297-.5205695.0585592-.6646041-.1623819s-.0916869-.5157667.1196041-.6736181l3.981-2.914-2.7 1.56c-.2240372.1259992-.5071082.0616068-.6545964-.1489061s-.1113381-.4985559.0835964-.6660939l2.618-2.2c-.2021394-.0436579-.3565439-.207252-.3884555-.4115753-.0319117-.2043233.0652552-.4072084.2444555-.5104247l4.007-2.313c.2240372-.1259992.5071082-.0616068.6545964.1489061s.1113381.4985559-.0835964.6660939l-2.051 1.722 5.762-3.326c.2296891-.1296297.5205695-.0585592.6646041.1623819s.0916869.5157667-.1196041.6736181l-3.979 2.913 6.172-3.564c.234721-.145527.542973-.073221.6885.1615s.073221.542973-.1615.6885l-.968.642 2.034-1.174c.2329673-.1327691.5291919-.0581284.6714287.1691822.1422368.2273105.0798406.5263539-.1414287.6778178l-4.29 2.906 11.727-6.77c.2330829-.1306613.5277074-.0549657.6689423.1718661.1412349.2268319.0791592.5246238-.1409423.6761339l-10.964 7.359 10.436-6.022c.2337734-.1287456.5274505-.051198.667188.1761759.1397374.2273739.07627.5244122-.144188.6748241l-7.262 4.738 6.74-3.889c.2329673-.1327691.5291919-.0581284.6714287.1691822.1422368.2273105.0798406.5263539-.1414287.6778178l-9.883 6.686 9.353-5.4c.2329673-.1327691.5291919-.0581284.6714287.1691822.1422368.2273105.0798406.5263539-.1414287.6778178l-8.43 5.7 7.9-4.561c.2354116-.1379583.5379577-.061708.6798637.1713453.1419059.2330532.070765.5368414-.1598637.6826547l-1.748 1.117 1.228-.709c.2330829-.1306613.5277074-.0549657.6689423.1718661.1412349.2268319.0791592.5246238-.1409423.6761339l-5.23 3.5 4.7-2.714c.2322377-.1273115.5234633-.0514462.664069.1729923.1406056.2244384.0818101.5195841-.134069.6730077l-4.549 3.088 4.012-2.316c.233204-.1287421.5263939-.0520483.6666872.1743946.1402933.226443.0784231.5231151-.1406872.6746054l-.91.6.2-.114c.2287194-.1310429.5198877-.0620127.6654353.1577616.1455476.2197742.0954752.5147944-.1144353.6742384l-4.792 3.613 3.444-1.988c.2287194-.1310429.5198877-.0620127.6654353.1577616.1455476.2197742.0954752.5147944-.1144353.6742384l-1.7 1.283c.2076384.0356663.3706429.1976593.4076008.4050717s-.060061.4157379-.2426008.5209283l-5.947 3.434c-.2287194.1310429-.5198877.0620127-.6654353-.1577616-.1455476-.2197742-.0954752-.5147944.1144353-.6742384l.946-.714-3.47 2c-.0760657.0459462-.1631362.0704779-.252.071z"/><path id="Path" d="m51.03 32.834c-.2130815-.0000483-.4027207-.1351321-.4723987-.3364992-.0696779-.2013671-.0040834-.4247682.1633987-.5565008l2.528-2-1.969 1.14c-.2256086.1271264-.5109479.0609576-.657579-.1524896-.1466312-.2134471-.106025-.5035297.093579-.6685104l3.017-2.446-2.454 1.416c-.2243164.1264895-.5080183.0619132-.6554889-.1492026s-.1104702-.4997121.0854889-.6667974l3.471-2.893-2.9 1.673c-.229416.1334891-.5231565.0644561-.6690977-.1572468-.1459412-.221703-.0932171-.5188044.1200977-.6767532l1.05-.781-.5.289c-.2302873.1343427-.5254749.0643663-.6709518-.1590541-.1454768-.2234204-.0900639-.5216852.1259518-.6779459l.456-.332c-.2288282.077787-.4805391-.0192376-.5979549-.2304878-.1174159-.2112503-.0669205-.4762453.1199549-.6295122l3.209-2.63-2.642 1.524c-.2266506.1274915-.5131906.0599635-.6590607-.1553189-.1458701-.2152823-.1023667-.5064398.1000607-.6696811l2.449-1.927-1.89 1.091c-.2266506.1274915-.5131906.0599635-.6590607-.1553189-.1458701-.2152823-.1023667-.5064398.1000607-.6696811l2.541-2.008-1.982 1.144c-.2253165.1265297-.5099298.0605202-.6565485-.1522715-.1466186-.2127916-.1069324-.5022515.0915485-.6677285l3.051-2.478-2.488 1.435c-.2269806.1326577-.5179234.0668764-.6657567-.1505254-.1478333-.2174019-.1020535-.5121545.1047567-.6744746l2.682-2.133-2.121 1.224c-.2253165.1265297-.5099298.0605202-.6565485-.1522715-.1466186-.2127916-.1069324-.5022515.0915485-.6677285l3.059-2.487-3.414 1.971c-.2288588.1292299-.518701.0592157-.6633326-.1602346-.1446317-.2194502-.0946742-.513414.1143326-.6727654l2.133-1.6-4.9 2.831c-.2313261.1333882-.5266402.061466-.670727-.1633522-.1440867-.2248181-.0860887-.5231794.131727-.6776478l3.359-2.378-6.484 3.743c-.2314518.1313128-.5252013.0583356-.6682918-.1660259-.1430904-.2243616-.0853808-.5214879.1312918-.6759741l6.406-4.483-10.336 5.969c-.2324067.1328499-.5282158.0590851-.6710333-.1673329s-.0819688-.5251514.1380333-.6776671l9.139-6.287-13.588 7.845c-.2347034.1364868-.5354374.0607325-.6774741-.1706544-.1420368-.2313868-.073465-.5338394.1544741-.6813456l7.336-4.768-10.7 6.175c-.2348642.1312813-.531504.0531604-.6712412-.1767732-.1397372-.2299337-.0724576-.5292187.1522412-.6772268l4.868-3.1-7.665 4.425c-.2374252.1242009-.5305531.0391619-.6646466-.1928199-.1340935-.2319817-.0614797-.5284321.1646466-.6721801l27.873-16.09c.234481-.12707284.5274228-.04774006.6657366.18029089.1383139.22803094.0733058.52448086-.1477366.67370911l-4.867 3.1 6.922-3.996c.2334572-.12530509.5241289-.04673672.6626677.17911863s.0768365.52056857-.1406677.67188137l-7.337 4.769 8.117-4.686c.2324067-.13284986.5282158-.05908515.6710333.16733285s.0819688.52515148-.1380333.67766715l-9.138 6.286 9.322-5.382c.2314518-.13131281.5252013-.05833565.6682918.16602591.1430904.22436156.0853808.52148787-.1312918.67597409l-6.41 4.487 5.9-3.407c.2313261-.13338821.5266402-.06146595.670727.16335216.1440867.22481812.0860887.52317941-.131727.67764784l-3.358 2.377 2.82-1.627c.2290632-.13219788.5214568-.06314799.6671806.15755725.1457237.22070523.094369.51671981-.1171806.67544275l-2.13 1.594 1.58-.912c.2253165-.12652975.5099298-.06052016.6565485.15227149.1466186.21279165.1069324.50225149-.0915485.66772851l-3.061 2.487 2.5-1.44c.226507-.1291681.5142486-.0625855.6609917.1529516.1467432.2155372.103215.5076567-.0999917.6710484l-2.685 2.132 2.118-1.223c.2257586-.1294404.5130594-.0640705.6605892.1503047.1475298.2143751.1059565.5060712-.0955892.6706953l-3.051 2.477 2.486-1.434c.2266506-.1274915.5131906-.0599635.6590607.1553189.1458701.2152823.1023667.5064398-.1000607.6696811l-2.545 2.011 1.986-1.146c.2266506-.1274915.5131906-.0599635.6590607.1553189.1458701.2152823.1023667.5064398-.1000607.6696811l-2.446 1.924 1.887-1.089c.2256098-.1311968.5141774-.0668035.6626093.1478598.1484318.2146634.1067938.5073817-.0956093.6721402l-3.212 2.632 2.645-1.526c.2302873-.1343427.5254749-.0643663.6709518.1590541.1454768.2234204.0900639.5216852-.1259518.6779459l-.454.33c.2336285-.0800152.4906813.0225184.6051002.2413632.1144188.2188447.0519291.488445-.1471002.6346368l-1.056.785.507-.292c.2247363-.1292165.510959-.0652384.6592891.1473681.1483301.2126064.1095663.5033193-.0892891.6696319l-3.471 2.893 2.9-1.674c.2260575-.1301558.5141897-.0646595.6617686.1504288.1475789.2150884.1050107.5074886-.0977686.6715712l-3.015 2.444 2.451-1.415c.2266506-.1274915.5131906-.0599635.6590607.1553189.1458701.2152823.1023667.5064398-.1000607.6696811l-2.525 1.994 1.966-1.135c.23893-.1358451.5427102-.0533708.6801373.1846528.137427.2380237.0569695.5423443-.1801373.6813472l-7.94 4.585c-.0749629.0437754-.1601915.0668941-.247.067z"/><path id="Path" d="m17.03 39.242c-.2141159-.0025493-.4028392-.1411593-.4693309-.3447052-.0664917-.203546.0040109-.4268364.1753309-.5552948l.408-.3c-.2323967.0559389-.4718821-.060436-.5715104-.2777183s-.0315301-.4746905.1625104-.6142817l.452-.329c-.2294504.0745033-.4793793-.0254511-.5941766-.2376299-.1147973-.2121787-.0617235-.4760698.1261766-.6273701l2.7-2.154-2.139 1.236c-.2292016.1303039-.5201978.0602449-.6649792-.1600976s-.0935911-.5152436.1169792-.6739024l.888-.658-.34.2c-.2290632.1321979-.5214568.063148-.6671806-.1575572-.1457237-.2207053-.094369-.5167199.1171806-.6754428l1.171-.875-.621.359c-.228242.1318458-.5196375.063862-.6659708-.1553737-.1463332-.2192358-.0973404-.5144185.1119708-.6746263l1.889-1.45-1.335.771c-.2288588.1292299-.518701.0592157-.6633326-.1602346-.1446317-.2194502-.0946742-.513414.1143326-.6727654l1.1-.818-.547.316c-.2271002.1265913-.5133226.0580067-.6583864-.1577626-.1450637-.2157693-.100553-.506709.1023864-.6692374l2.153-1.672-1.6.922c-.227871.1265147-.5147039.056766-.6590373-.1602571s-.0977476-.5085154.1070373-.6697429l1.709-1.3-1.157.668c-.2263468.1267998-.5120755.0594093-.6579064-.1551704-.1458308-.2145797-.1033101-.5050523.0979064-.6688296l2.608-2.069-2.05 1.179c-.2263468.1267998-.5120755.0594093-.6579064-.1551704-.1458308-.2145797-.1033101-.5050523.0979064-.6688296l2.779-2.2-2.219 1.28c-.2362845.1306359-.5336041.0500916-.6716393-.181948s-.0669238-.5317553.1606393-.677052l3.818-2.351-3.307 1.904c-.2350866.127347-.5287583.0472199-.6665908-.1818764-.1378325-.2290964-.071048-.5260868.1515908-.6741236l6.82-4.27-6.3 3.64c-.2354379.13455-.5352149.0569022-.6757281-.1750261-.1405133-.2319283-.0705395-.5335888.1577281-.6799739l7.475-4.762-6.957 4.017c-.2349709.1292146-.5300387.050062-.6687925-.179405-.1387537-.2294671-.0717837-.5275361.1517925-.675595l3.175-2.01-2.658 1.533c-.2319831.1309881-.5259285.0570795-.6683699-.1680527-.1424414-.2251321-.0833463-.52241.1343699-.6759473l8.746-6.05-8.212 4.741c-.2288588.1292299-.518701.0592157-.6633326-.1602346-.1446317-.2194502-.0946742-.513414.1143326-.6727654l6.749-5.038-6.2 3.578c-.2266506.1274915-.5131906.0599635-.6590607-.1553189-.1458701-.2152823-.1023667-.5064398.1000607-.6696811l3.7-2.921-3.136 1.81c-.222272.1250569-.5030453.0627806-.6515981-.1445262-.1485528-.2073069-.1172703-.4931974.0725981-.6634738l1.549-1.356-.922.532c-.2157055.12306449-.4890446.06915822-.6418764-.12658691-.1528317-.19574514-.1388315-.47399712.0328764-.65341309l.714-.74c-.0840014-.04399708-.1534655-.11137722-.2-.194-.1373847-.23891688-.0555349-.54395304.183-.682l2.016-1.164c.2157055-.12306449.4890446-.06915822.6418764.12658691.1528317.19574514.1388315.47399712-.0328764.65341309l-.134.139 2.273-1.312c.2226556-.12737455.5055829-.06559282.6548741.14300234s.1165111.49632815-.0758741.66599766l-1.55 1.355 4.652-2.692c.2268147-.12994997.5154475-.06325566.6622581.15302785.1468106.2162835.1022433.50914993-.1022581.67197215l-3.7 2.92 7.595-4.382c.2288588-.12922991.518701-.05921567.6633326.16023456.1446317.21945024.0946742.51341403-.1143326.67276544l-6.747 5.038 11.473-6.625c.2319831-.1309881.5259285-.05707946.6683699.16805269.1424414.22513216.0833463.52241-.1343699.67594731l-8.744 6.049 13.167-7.6c.2363779-.14276559.5437344-.06687785.6865.16950001.1427656.23637787.0668779.54373437-.1695.68649999l-3.174 2.01 5.725-3.305c.2348642-.13128134.531504-.05316042.6712412.17677323.1397372.22993366.0724576.52921865-.1522412.67722677l-7.484 4.767 10.649-6.148c.2361735-.13618181.537908-.05806811.6783318.17560806.1404239.23367616.0677709.53677186-.1633318.68139194l-6.8 4.258 9.707-5.6c.2362845-.13063592.5336041-.05009165.6716393.18194798.1380352.23203962.0669238.53175531-.1606393.67705202l-25.585 15.747c.0103051.1632647-.0599083.321245-.188.423l-2.779 2.2 2.03-1.171c.2263468-.1267998.5120755-.0594093.6579064.1551704.1458308.2145797.1033101.5050523-.0979064.6688296l-2.606 2.066 2.046-1.18c.227871-.1265147.5147039-.056766.6590373.1602571s.0977476.5085154-.1070373.6697429l-1.71 1.3 1.158-.668c.2275891-.1298897.5168511-.062032.6629348.1555172.1460838.2175492.0994243.5109773-.1069348.6724828l-2.153 1.671 1.6-.921c.2288588-.1292299.518701-.0592157.6633326.1602346.1446317.2194502.0946742.513414-.1143326.6727654l-1.1.817.547-.315c.227731-.1281621.5157443-.059345.6609391.1579231.1451949.217268.0985947.509699-.1069391.6710769l-1.889 1.45 1.335-.771c.2290632-.1321979.5214568-.063148.6671806.1575572.1457237.2207053.094369.5167199-.1171806.6754428l-1.171.875.621-.358c.2292016-.1303039.5201978-.0602449.6649792.1600976s.0935911.5152436-.1169792.6739024l-.888.658.34-.2c.226047-.126152.5110038-.0589101.6568083.1549885.1458046.2138986.1042381.5037159-.0958083.6680115l-2.7 2.154 2.14-1.228c.2302873-.1343427.5254749-.0643663.6709518.1590541.1454768.2234204.0900639.5216852-.1259518.6779459l-.452.329c.2338657-.0771505.4890847.0274731.601504.2465787.1124194.2191056.0485603.4874428-.150504.6324213l-.408.3c.2414989-.0567911.4881187.0720847.5793904.3027716.0912718.2306869-.00041.4934125-.2153904.6172284l-7.94 4.584c-.0762338.0428941-.1625426.064644-.25.063z"/></g><path id="Shape" d="m56.031.67c-.11363-.01793527-.22937-.01793527-.343 0-5.7866667.82666667-11.573 1.65433333-17.359 2.483-6.051.865-12.975.937-18.838 2.7-5.11 1.541-3.215 9.755-3.215 13.811v19.3c-4.562-.8-9.459.11-12.917 3.4-4.836 4.606-3.491 11.836 2.108 15.115 7.958 4.66 20.033.449 20.257-9.5.2-9.085 0-18.2 0-27.285 0-.51-.316-2.453.075-2.9.483-.55 3.559-.51 4.26-.61l15.377-2.2c.676-.1 3.653-1 4.26-.61 1.19.761.58 3.839.58 4.922v13.68c-6.8-1.079-16.037 2.082-16 10.218.041 9.2 11.883 12 18.805 8.809 6.055-2.787 6.643-7.878 6.643-13.712v-22.72c0-3.98 2.163-14.453-3.693-14.901zm2.018 44.291c-2.089 9.273-16.176 9.873-20.87 2.469-5.476-8.637 5.406-15.439 13.369-13.5.334.081 1.176-.117 1.176-.555v-9.781c0-1.8 1.1-8.1-.344-9.543-.918-.915-3.272-.131-4.292.015l-12.947 1.852c-3.369.482-9.582-.322-9.865 3.925-.534 7.989 0 16.188 0 24.2 0 6.441.06 11.712-7.921 13.791-5.754 1.5-12.882-.7-14.4-7.167-1.923-8.196 7.872-12.373 14.593-10.736.334.081 1.176-.117 1.176-.555v-17.192c0-3.965-1.993-14.111 2.693-15.789 2.4-.858 5.568-.8 8.081-1.155l12.448-1.779c4.7693333-.682 9.5383333-1.363 14.307-2.043 4.7.535 3.023 9.679 3.023 12.305v19.5c0 3.726.6 8.067-.227 11.738z" fill="#262626"/><path id="Path" d="m13.063 42.463c-3.8.093-8.609 2.231-8.8 6.59-.033.76 1.44.557 1.468-.106.158-3.657 4-5.333 7.2-5.41.835-.02 1.118-1.098.132-1.074z" fill="#262626"/><path id="Path" d="m47.063 36.463c-3.8.093-8.609 2.231-8.8 6.59-.033.76 1.44.557 1.468-.106.158-3.657 4-5.333 7.2-5.41.835-.02 1.118-1.098.132-1.074z" fill="#262626"/><path id="Path" d="m51.134 5.454-26 3.715c-.588.084-1.29.689-.268.542l26-3.711c.588-.088 1.29-.693.268-.546z" fill="#262626"/></g></svg>