<svg id="Capa_1" enable-background="new 0 0 511.99 511.99" height="512" viewBox="0 0 511.99 511.99" width="512" xmlns="http://www.w3.org/2000/svg"><g id="XMLID_9_"><path id="XMLID_1270_" d="m255.866 189.901h65.275l44.809-37.412c13.14-10.97 29.714-16.98 46.831-16.98 38.391 0 70.235 29.709 72.895 68.008l16.169 232.834c2.463 35.473-25.649 65.605-61.207 65.605-18.304 0-35.651-8.172-47.307-22.284l-49.364-59.77c-10.588-12.819-26.346-20.243-42.972-20.243h-45-45c-16.626 0-32.385 7.423-42.972 20.243l-49.364 59.77c-11.656 14.113-29.003 22.284-47.307 22.284-35.559 0-63.671-30.132-61.207-65.605l16.169-232.834c2.66-38.299 34.504-68.008 72.895-68.008 17.117 0 33.691 6.009 46.831 16.98l44.809 37.412h65.275" fill="#00ccf2"/><path id="XMLID_2361_" d="m186.653 269.915h-24v-24c0-11.046-8.954-20-20-20s-20 8.954-20 20v24h-24c-11.046 0-20 8.954-20 20s8.954 20 20 20h24v24c0 11.046 8.954 20 20 20s20-8.954 20-20v-24h24c11.046 0 20-8.954 20-20s-8.954-20-20-20z" fill="#fff"/><circle id="XMLID_2240_" cx="342.346" cy="316.224" fill="#ffcd69" r="22.793"/><circle id="XMLID_2238_" cx="406.815" cy="251.755" fill="#ff7b79" r="22.793"/><g id="XMLID_150_"><path id="XMLID_151_" d="m511.82 435.659-16.169-232.835c-3.011-43.354-39.412-77.314-82.87-77.314-19.424 0-38.331 6.855-53.24 19.303l-42.026 35.087h-51.393v-39.366c0-18.472 15.028-33.5 33.5-33.5h23.873c29.5 0 53.5-24 53.5-53.5s-24-53.5-53.5-53.5h-67.373c-5.523 0-10 4.477-10 10 0 5.522 4.478 10 10 10h67.373c18.472 0 33.5 15.028 33.5 33.5s-15.028 33.5-33.5 33.5h-23.873c-29.5 0-53.5 24-53.5 53.5v39.366h-51.647l-42.025-35.087c-14.909-12.448-33.816-19.304-53.24-19.304-43.458 0-79.859 33.961-82.87 77.316l-16.17 232.833c-1.366 19.663 5.562 39.207 19.008 53.619 13.447 14.413 32.464 22.679 52.175 22.679 21.361 0 41.414-9.446 55.018-25.916l49.364-59.77c8.717-10.556 21.569-16.61 35.261-16.61 5.523 0 10-4.478 10-10s-4.477-10-10-10c-19.68 0-38.152 8.702-50.682 23.875l-49.363 59.77c-9.791 11.854-24.224 18.652-39.598 18.652-14.395 0-27.73-5.797-37.551-16.322-9.819-10.525-14.678-24.229-13.681-38.59l16.169-232.834c2.287-32.917 29.924-58.701 62.919-58.701 14.747 0 29.103 5.205 40.422 14.656l44.809 37.411c1.799 1.501 4.066 2.323 6.409 2.323h130.293c2.343 0 4.61-.822 6.409-2.323l44.809-37.412c11.319-9.45 25.675-14.655 40.422-14.655 32.995 0 60.632 25.784 62.919 58.7l16.169 232.835c.997 14.359-3.861 28.064-13.681 38.589s-23.156 16.322-37.551 16.322c-15.374 0-29.807-6.799-39.598-18.652l-49.362-59.769c-12.53-15.174-31.003-23.876-50.683-23.876-5.522 0-10 4.478-10 10s4.478 10 10 10c13.691 0 26.544 6.055 35.262 16.611l49.363 59.77c13.604 16.47 33.656 25.916 55.018 25.916 19.711 0 38.728-8.266 52.175-22.679 13.445-14.412 20.373-33.956 19.007-53.618z"/><path id="XMLID_768_" d="m142.653 363.915c16.542 0 30-13.458 30-30v-14h14c16.542 0 30-13.458 30-30s-13.458-30-30-30h-14v-14c0-16.542-13.458-30-30-30s-30 13.458-30 30v14h-14c-16.542 0-30 13.458-30 30s13.458 30 30 30h14v14c0 16.542 13.458 30 30 30zm-44-64c-5.514 0-10-4.486-10-10s4.486-10 10-10h24c5.523 0 10-4.477 10-10v-24c0-5.514 4.486-10 10-10s10 4.486 10 10v24c0 5.523 4.478 10 10 10h24c5.514 0 10 4.486 10 10s-4.486 10-10 10h-24c-5.522 0-10 4.478-10 10v24c0 5.514-4.486 10-10 10s-10-4.486-10-10v-24c0-5.522-4.477-10-10-10z"/><path id="XMLID_771_" d="m319.157 293.035c-12.786 12.786-12.786 33.591 0 46.377 6.394 6.393 14.791 9.589 23.189 9.589 8.397 0 16.795-3.196 23.188-9.589 12.786-12.786 12.786-33.591 0-46.377-12.787-12.785-33.59-12.785-46.377 0zm32.234 32.234c-4.988 4.988-13.104 4.988-18.092 0s-4.988-13.104 0-18.092c2.494-2.494 5.77-3.741 9.046-3.741s6.552 1.247 9.046 3.741c4.989 4.989 4.989 13.104 0 18.092z"/><path id="XMLID_782_" d="m383.626 228.566c-12.786 12.786-12.786 33.591 0 46.377 6.393 6.393 14.791 9.59 23.188 9.59 8.398 0 16.796-3.197 23.19-9.591 12.784-12.785 12.784-33.59 0-46.375 0-.001 0-.001 0-.001-12.786-12.785-33.59-12.785-46.378 0zm32.235 32.235c-4.987 4.988-13.104 4.989-18.093 0-4.988-4.988-4.988-13.104 0-18.092 2.494-2.494 5.771-3.741 9.046-3.741 3.276 0 6.553 1.247 9.047 3.74 4.987 4.988 4.987 13.105 0 18.093z"/><path id="XMLID_783_" d="m255.995 389.655c-2.63 0-5.21 1.069-7.07 2.93-1.86 1.87-2.93 4.439-2.93 7.07 0 2.64 1.069 5.21 2.93 7.08 1.86 1.859 4.44 2.92 7.07 2.92s5.21-1.061 7.069-2.92c1.86-1.87 2.931-4.45 2.931-7.08 0-2.631-1.07-5.2-2.931-7.07-1.859-1.861-4.439-2.93-7.069-2.93z"/></g></g></svg>