<svg xmlns="http://www.w3.org/2000/svg" height="512pt" version="1.1" viewBox="0 0 512 512.001" width="512pt">
<g id="surface1">
<path d="M 353.554688 486.289062 L 158.445312 486.289062 C 158.445312 486.289062 191.714844 460.796875 191.714844 411 L 320.285156 411 C 320.285156 460.796875 353.554688 486.289062 353.554688 486.289062 Z M 353.554688 486.289062 " style=" stroke:none;fill-rule:nonzero;fill:rgb(67.843137%,90.588235%,100%);fill-opacity:1;" />
<path d="M 320.285156 411 L 291.097656 411 C 291.097656 460.796875 324.367188 486.289062 324.367188 486.289062 L 353.554688 486.289062 C 353.554688 486.289062 320.285156 460.796875 320.285156 411 Z M 320.285156 411 " style=" stroke:none;fill-rule:nonzero;fill:rgb(50.980392%,82.352941%,96.078431%);fill-opacity:1;" />
<path d="M 495.9375 416.191406 L 16.0625 416.191406 C 7.191406 416.191406 0 409.003906 0 400.132812 L 0 102.597656 C 0 93.726562 7.191406 86.535156 16.0625 86.535156 L 495.9375 86.535156 C 504.808594 86.535156 512 93.726562 512 102.597656 L 512 400.132812 C 512 409.003906 504.808594 416.191406 495.9375 416.191406 Z M 495.9375 416.191406 " style=" stroke:none;fill-rule:nonzero;fill:rgb(40.784314%,36.078431%,47.45098%);fill-opacity:1;" />
<path d="M 495.9375 86.535156 L 465.035156 86.535156 C 473.90625 86.535156 481.09375 93.726562 481.09375 102.597656 L 481.09375 400.132812 C 481.09375 409.003906 473.90625 416.191406 465.035156 416.191406 L 495.9375 416.191406 C 504.808594 416.191406 512 409.003906 512 400.132812 L 512 102.597656 C 512 93.726562 504.808594 86.535156 495.9375 86.535156 Z M 495.9375 86.535156 " style=" stroke:none;fill-rule:nonzero;fill:rgb(34.901961%,30.980392%,41.176471%);fill-opacity:1;" />
<path d="M 30.90625 381.289062 L 30.90625 121.441406 C 30.90625 119.230469 32.695312 117.441406 34.90625 117.441406 L 477.09375 117.441406 C 479.304688 117.441406 481.09375 119.230469 481.09375 121.441406 L 481.09375 381.289062 C 481.09375 383.496094 479.304688 385.289062 477.09375 385.289062 L 34.90625 385.289062 C 32.695312 385.289062 30.90625 383.496094 30.90625 381.289062 Z M 30.90625 381.289062 " style=" stroke:none;fill-rule:nonzero;fill:rgb(67.843137%,90.588235%,100%);fill-opacity:1;" />
<path d="M 388.894531 512 L 123.109375 512 C 114.574219 512 107.65625 505.082031 107.65625 496.546875 C 107.65625 488.011719 114.574219 481.09375 123.109375 481.09375 L 388.894531 481.09375 C 397.429688 481.09375 404.347656 488.011719 404.347656 496.546875 C 404.347656 505.082031 397.429688 512 388.894531 512 Z M 388.894531 512 " style=" stroke:none;fill-rule:nonzero;fill:rgb(40.784314%,36.078431%,47.45098%);fill-opacity:1;" />
<path d="M 388.894531 481.09375 L 357.859375 481.09375 C 366.390625 481.09375 373.308594 488.015625 373.308594 496.546875 C 373.308594 505.082031 366.390625 512 357.859375 512 L 388.894531 512 C 397.425781 512 404.347656 505.082031 404.347656 496.546875 C 404.347656 488.011719 397.429688 481.09375 388.894531 481.09375 Z M 388.894531 481.09375 " style=" stroke:none;fill-rule:nonzero;fill:rgb(34.901961%,30.980392%,41.176471%);fill-opacity:1;" />
<path d="M 410.914062 22.953125 C 410.914062 31.488281 403.996094 38.40625 395.460938 38.40625 C 386.925781 38.40625 380.007812 31.488281 380.007812 22.953125 C 380.007812 14.417969 386.925781 7.5 395.460938 7.5 C 403.996094 7.5 410.914062 14.417969 410.914062 22.953125 Z M 410.914062 22.953125 " style=" stroke:none;fill-rule:nonzero;fill:rgb(100%,17.254902%,36.078431%);fill-opacity:1;" />
<path d="M 271.453125 22.953125 C 271.453125 31.488281 264.535156 38.40625 256 38.40625 C 247.464844 38.40625 240.546875 31.488281 240.546875 22.953125 C 240.546875 14.417969 247.464844 7.5 256 7.5 C 264.535156 7.5 271.453125 14.417969 271.453125 22.953125 Z M 271.453125 22.953125 " style=" stroke:none;fill-rule:nonzero;fill:rgb(100%,17.254902%,36.078431%);fill-opacity:1;" />
<path d="M 131.992188 22.953125 C 131.992188 31.488281 125.074219 38.40625 116.539062 38.40625 C 108.003906 38.40625 101.085938 31.488281 101.085938 22.953125 C 101.085938 14.417969 108.003906 7.5 116.539062 7.5 C 125.074219 7.5 131.992188 14.417969 131.992188 22.953125 Z M 131.992188 22.953125 " style=" stroke:none;fill-rule:nonzero;fill:rgb(100%,17.254902%,36.078431%);fill-opacity:1;" />
<path d="M 418.414062 22.953125 C 418.414062 10.296875 408.117188 0 395.460938 0 C 382.804688 0 372.507812 10.296875 372.507812 22.953125 C 372.507812 32.984375 378.976562 41.523438 387.960938 44.640625 L 387.960938 55.628906 L 318.457031 55.628906 C 314.3125 55.628906 310.957031 58.988281 310.957031 63.128906 L 310.957031 178.523438 C 310.957031 182.664062 314.3125 186.023438 318.457031 186.023438 C 322.597656 186.023438 325.957031 182.664062 325.957031 178.523438 L 325.957031 70.628906 L 395.460938 70.628906 C 399.605469 70.628906 402.960938 67.273438 402.960938 63.128906 L 402.960938 44.640625 C 411.945312 41.523438 418.414062 32.984375 418.414062 22.953125 Z M 395.460938 30.90625 C 391.074219 30.90625 387.507812 27.339844 387.507812 22.953125 C 387.507812 18.566406 391.074219 15 395.460938 15 C 399.847656 15 403.414062 18.566406 403.414062 22.953125 C 403.414062 27.339844 399.847656 30.90625 395.460938 30.90625 Z M 395.460938 30.90625 " style=" stroke:none;fill-rule:nonzero;fill:rgb(34.901961%,30.980392%,41.176471%);fill-opacity:1;" />
<path d="M 256 0 C 243.34375 0 233.046875 10.296875 233.046875 22.953125 C 233.046875 32.984375 239.515625 41.523438 248.5 44.640625 L 248.5 149.148438 C 248.5 153.292969 251.859375 156.648438 256 156.648438 C 260.144531 156.648438 263.5 153.292969 263.5 149.148438 L 263.5 44.640625 C 272.484375 41.523438 278.953125 32.984375 278.953125 22.953125 C 278.953125 10.296875 268.65625 0 256 0 Z M 256 30.90625 C 251.613281 30.90625 248.046875 27.339844 248.046875 22.953125 C 248.046875 18.566406 251.613281 15 256 15 C 260.386719 15 263.953125 18.566406 263.953125 22.953125 C 263.953125 27.339844 260.386719 30.90625 256 30.90625 Z M 256 30.90625 " style=" stroke:none;fill-rule:nonzero;fill:rgb(34.901961%,30.980392%,41.176471%);fill-opacity:1;" />
<path d="M 193.546875 55.628906 L 124.039062 55.628906 L 124.039062 44.640625 C 133.023438 41.523438 139.492188 32.984375 139.492188 22.953125 C 139.492188 10.296875 129.195312 0 116.539062 0 C 103.882812 0 93.585938 10.296875 93.585938 22.953125 C 93.585938 32.984375 100.054688 41.523438 109.039062 44.640625 L 109.039062 63.128906 C 109.039062 67.273438 112.398438 70.628906 116.539062 70.628906 L 186.046875 70.628906 L 186.046875 178.523438 C 186.046875 182.664062 189.402344 186.023438 193.546875 186.023438 C 197.6875 186.023438 201.046875 182.664062 201.046875 178.523438 L 201.046875 63.128906 C 201.046875 58.988281 197.6875 55.628906 193.546875 55.628906 Z M 116.539062 15 C 120.925781 15 124.492188 18.566406 124.492188 22.953125 C 124.492188 27.339844 120.925781 30.90625 116.539062 30.90625 C 112.15625 30.90625 108.585938 27.339844 108.585938 22.953125 C 108.585938 18.566406 112.15625 15 116.539062 15 Z M 116.539062 15 " style=" stroke:none;fill-rule:nonzero;fill:rgb(34.901961%,30.980392%,41.176471%);fill-opacity:1;" />
<path d="M 355.929688 193.171875 L 355.929688 311.609375 C 355.929688 313.929688 354.601562 316.03125 352.511719 317.03125 L 325.492188 329.941406 L 258.589844 361.898438 C 257.769531 362.289062 256.878906 362.480469 256 362.480469 C 255.121094 362.480469 254.230469 362.289062 253.410156 361.898438 L 159.492188 317.03125 C 157.402344 316.03125 156.070312 313.929688 156.070312 311.609375 L 156.070312 193.171875 C 156.070312 191.96875 156.429688 190.828125 157.070312 189.871094 C 157.652344 188.980469 158.480469 188.238281 159.492188 187.761719 L 227.332031 155.351562 L 253.410156 142.890625 C 255.050781 142.101562 256.949219 142.101562 258.589844 142.890625 L 352.511719 187.761719 C 353.519531 188.238281 354.351562 188.980469 354.929688 189.871094 C 355.570312 190.828125 355.929688 191.96875 355.929688 193.171875 Z M 355.929688 193.171875 " style=" stroke:none;fill-rule:nonzero;fill:rgb(100%,17.254902%,36.078431%);fill-opacity:1;" />
<path d="M 256 237.128906 L 256 362.480469 C 255.121094 362.480469 254.230469 362.289062 253.410156 361.898438 L 159.492188 317.03125 C 157.402344 316.03125 156.070312 313.929688 156.070312 311.609375 L 156.070312 193.171875 C 156.070312 191.96875 156.429688 190.828125 157.070312 189.871094 Z M 256 237.128906 " style=" stroke:none;fill-rule:nonzero;fill:rgb(30.980392%,69.411765%,96.078431%);fill-opacity:1;" />
<path d="M 355.929688 193.171875 L 355.929688 311.609375 C 355.929688 313.929688 354.601562 316.03125 352.511719 317.03125 L 325.492188 329.941406 L 258.589844 361.898438 C 257.769531 362.289062 256.878906 362.480469 256 362.480469 L 256 237.128906 L 325.019531 204.160156 L 354.929688 189.871094 C 355.570312 190.828125 355.929688 191.96875 355.929688 193.171875 Z M 355.929688 193.171875 " style=" stroke:none;fill-rule:nonzero;fill:rgb(100%,83.921569%,34.901961%);fill-opacity:1;" />
<path d="M 354.929688 189.871094 L 325.019531 204.160156 L 227.332031 155.351562 L 253.410156 142.890625 C 255.050781 142.101562 256.949219 142.101562 258.589844 142.890625 L 352.511719 187.761719 C 353.519531 188.238281 354.351562 188.980469 354.929688 189.871094 Z M 354.929688 189.871094 " style=" stroke:none;fill-rule:nonzero;fill:rgb(90.196078%,15.294118%,32.54902%);fill-opacity:1;" />
<path d="M 355.929688 193.171875 L 355.929688 311.609375 C 355.929688 313.929688 354.601562 316.03125 352.511719 317.03125 L 325.492188 329.941406 L 325.019531 204.160156 L 354.929688 189.871094 C 355.570312 190.828125 355.929688 191.96875 355.929688 193.171875 Z M 355.929688 193.171875 " style=" stroke:none;fill-rule:nonzero;fill:rgb(100%,74.117647%,32.941176%);fill-opacity:1;" />
</g>
</svg>