<?xml version="1.0" encoding="iso-8859-1"?>
<!-- Generator: Adobe Illustrator 19.0.0, SVG Export Plug-In . SVG Version: 6.00 Build 0)  -->
<svg version="1.1" id="Capa_1" xmlns="http://www.w3.org/2000/svg" xmlns:xlink="http://www.w3.org/1999/xlink" x="0px" y="0px"
	 viewBox="0 0 512 512" style="enable-background:new 0 0 512 512;" xml:space="preserve">
<path style="fill:#D8D8E4;" d="M477.997,182.008H34.007c-13.255,0-23.999,10.745-23.999,23.999v271.994
	c0,13.255,10.745,23.999,23.999,23.999h443.99c13.255,0,23.999-10.745,23.999-23.999V206.007
	C501.996,192.752,491.251,182.008,477.997,182.008z"/>
<g>
	<rect x="47.924" y="150.006" style="fill:#4DBAF6;" width="55.999" height="31.999"/>
	<polygon style="fill:#4DBAF6;" points="365.499,181.008 338.5,93.01 173.504,93.01 146.505,181.008 	"/>
	<circle style="fill:#4DBAF6;" cx="256.006" cy="342.002" r="127.997"/>
</g>
<g>
	<circle style="fill:#FFFFFF;" cx="64.011" cy="230.005" r="16"/>
	<circle style="fill:#FFFFFF;" cx="256.006" cy="342.002" r="79.498"/>
</g>
<path d="M64.007,204.007c-14.337,0-25.999,11.663-25.999,25.999s11.663,25.999,25.999,25.999s25.999-11.663,25.999-25.999
	S78.343,204.007,64.007,204.007z M64.007,236.006c-3.309,0-6-2.691-6-6s2.691-6,6-6c3.309,0,6,2.691,6,6
	S67.314,236.006,64.007,236.006z"/>
<path d="M477.997,172.008H373.198L348.06,90.076c-1.289-4.199-5.168-7.066-9.561-7.066H173.503c-4.393,0-8.271,2.867-9.561,7.066
	l-25.138,81.932H113.92v-21.999c0-5.522-4.478-10-10-10H47.922c-5.522,0-10,4.478-10,10v21.999h-3.917
	c-18.748,0-33.999,15.252-33.999,33.999v271.994C0.006,496.748,15.258,512,34.005,512h443.99c18.748,0,33.999-15.252,33.999-33.999
	V206.007C511.996,187.26,496.744,172.008,477.997,172.008z M180.895,103.01h150.213l21.17,68.998H159.726L180.895,103.01z
	 M57.924,160.008h35.999v12H57.924C57.924,172.008,57.924,160.008,57.924,160.008z M491.996,478.001c0,7.72-6.28,14-14,14h-6.25
	v-69.915c0-5.522-4.478-10-10-10s-10,4.478-10,10V492H34.007c-7.72,0-14-6.28-14-14V206.007c0-7.72,6.28-14,14-14h443.99
	c7.72,0,14,6.28,14,14V478.001z"/>
<path d="M138.005,342.004l0.002-0.711c0.021-5.522-4.438-10.018-9.961-10.039c-0.014,0-0.026,0-0.04,0
	c-5.504,0-9.978,4.451-9.999,9.961l-0.002,0.789c0,5.522,4.478,10,10,10S138.005,347.526,138.005,342.004z"/>
<path d="M256.002,204.007c-28.764,0-56.331,8.765-79.721,25.344c-22.868,16.211-40.072,38.621-49.753,64.807
	c-1.915,5.18,0.732,10.932,5.913,12.847c5.177,1.914,10.931-0.732,12.847-5.913c17.044-46.106,61.537-77.085,110.714-77.085
	c65.063,0,117.997,52.934,117.997,117.997s-52.934,117.997-117.997,117.997c-50.629,0-95.552-32.193-111.786-80.109
	c-1.771-5.23-7.447-8.033-12.68-6.262c-5.23,1.771-8.034,7.449-6.262,12.68c18.986,56.04,71.521,93.691,130.727,93.691
	c76.092,0,137.997-61.905,137.997-137.997S332.094,204.007,256.002,204.007z"/>
<path d="M256.002,431.502c49.35,0,89.498-40.148,89.498-89.498s-40.148-89.498-89.498-89.498s-89.498,40.148-89.498,89.498
	S206.652,431.502,256.002,431.502z M256.002,272.506c38.321,0,69.498,31.177,69.498,69.498s-31.177,69.498-69.498,69.498
	s-69.498-31.177-69.498-69.498S217.681,272.506,256.002,272.506z"/>
<path d="M221.097,352.004c5.522,0,10-4.478,10-10c0-13.733,11.173-24.905,24.905-24.905c5.522,0,10-4.478,10-10
	c0-5.522-4.478-10-10-10c-24.761,0-44.905,20.145-44.905,44.905C211.097,347.526,215.574,352.004,221.097,352.004z"/>
<path d="M459.997,230.007c0-5.522-4.478-10-10-10h-51.999c-5.522,0-10,4.478-10,10c0,5.522,4.478,10,10,10h51.999
	C455.519,240.006,459.997,235.528,459.997,230.007z"/>
<path d="M256.002,51.543c5.522,0,10-4.478,10-10V10c0-5.522-4.478-10-10-10c-5.522,0-10,4.478-10,10v31.543
	C246.002,47.065,250.479,51.543,256.002,51.543z"/>
<path d="M301.473,69.01c2.56,0,5.118-0.977,7.071-2.929l15.431-15.431c3.905-3.905,3.905-10.237,0-14.143
	c-3.906-3.904-10.236-3.904-14.143,0l-15.431,15.431c-3.905,3.905-3.905,10.237,0,14.143
	C296.354,68.033,298.913,69.01,301.473,69.01z"/>
<path d="M203.46,66.081c1.953,1.952,4.512,2.929,7.071,2.929s5.118-0.977,7.071-2.929c3.905-3.905,3.905-10.237,0-14.143
	l-15.43-15.43c-3.906-3.904-10.236-3.904-14.143,0c-3.905,3.905-3.905,10.237,0,14.143L203.46,66.081z"/>
<path d="M288.001,127.009h-63.998c-5.522,0-10,4.478-10,10c0,5.522,4.478,10,10,10h63.998c5.522,0,10-4.478,10-10
	C298.001,131.487,293.523,127.009,288.001,127.009z"/>
<path d="M461.747,377.083c-2.63,0-5.21,1.069-7.07,2.93c-1.86,1.87-2.93,4.44-2.93,7.07s1.069,5.21,2.93,7.069
	c1.86,1.87,4.44,2.931,7.07,2.931s5.21-1.07,7.069-2.931c1.86-1.859,2.931-4.439,2.931-7.069s-1.07-5.2-2.931-7.07
	C466.957,378.152,464.377,377.083,461.747,377.083z"/>
<g>
</g>
<g>
</g>
<g>
</g>
<g>
</g>
<g>
</g>
<g>
</g>
<g>
</g>
<g>
</g>
<g>
</g>
<g>
</g>
<g>
</g>
<g>
</g>
<g>
</g>
<g>
</g>
<g>
</g>
</svg>
